# Tiled2Unity generated file. Do not modify by hand.
# Wavefront file for 'KulKuca2_mesh_0002.obj'

# Vertices (Count = 104)
v -352 -128 0
v -384 -128 0
v -384 -96 0
v -352 -96 0
v -224 -128 0
v -256 -128 0
v -256 -96 0
v -224 -96 0
v -96 -128 0
v -128 -128 0
v -128 -96 0
v -96 -96 0
v -352 -160 0
v -384 -160 0
v -384 -128 0
v -352 -128 0
v -224 -160 0
v -256 -160 0
v -256 -128 0
v -224 -128 0
v -96 -160 0
v -128 -160 0
v -128 -128 0
v -96 -128 0
v -352 -192 0
v -384 -192 0
v -384 -160 0
v -352 -160 0
v -320 -192 0
v -352 -192 0
v -352 -160 0
v -320 -160 0
v -288 -192 0
v -320 -192 0
v -320 -160 0
v -288 -160 0
v -256 -192 0
v -288 -192 0
v -288 -160 0
v -256 -160 0
v -224 -192 0
v -256 -192 0
v -256 -160 0
v -224 -160 0
v -192 -192 0
v -224 -192 0
v -224 -160 0
v -192 -160 0
v -160 -192 0
v -192 -192 0
v -192 -160 0
v -160 -160 0
v -128 -192 0
v -160 -192 0
v -160 -160 0
v -128 -160 0
v -96 -192 0
v -128 -192 0
v -128 -160 0
v -96 -160 0
v -64 -192 0
v -96 -192 0
v -96 -160 0
v -64 -160 0
v -352 -224 0
v -384 -224 0
v -384 -192 0
v -352 -192 0
v -320 -224 0
v -352 -224 0
v -352 -192 0
v -320 -192 0
v -288 -224 0
v -320 -224 0
v -320 -192 0
v -288 -192 0
v -256 -224 0
v -288 -224 0
v -288 -192 0
v -256 -192 0
v -224 -224 0
v -256 -224 0
v -256 -192 0
v -224 -192 0
v -192 -224 0
v -224 -224 0
v -224 -192 0
v -192 -192 0
v -160 -224 0
v -192 -224 0
v -192 -192 0
v -160 -192 0
v -128 -224 0
v -160 -224 0
v -160 -192 0
v -128 -192 0
v -96 -224 0
v -128 -224 0
v -128 -192 0
v -96 -192 0
v -64 -224 0
v -96 -224 0
v -96 -192 0
v -64 -192 0

# Texture cooridinates (Count = 20)
vt 0.25 0.25
vt 0.5 0.25
vt 0.5 0.5
vt 0.25 0.5
vt 0.75 0.25
vt 1 0.25
vt 1 0.5
vt 0.75 0.5
vt 0.25 0
vt 0.5 0
vt 0.75 0
vt 1 0
vt 0.25 0.75
vt 0.5 0.75
vt 0.5 1
vt 0.25 1
vt 0 0.75
vt 0 1
vt 0.75 0.75
vt 0.75 1

# Normal
vn 0 0 -1

# Mesh description
g KulKuca2_mesh_0002

# Faces
f 1/1/1 2/2/1 3/3/1 4/4/1
f 5/5/1 6/6/1 7/7/1 8/8/1
f 9/2/1 10/5/1 11/8/1 12/3/1
f 13/9/1 14/10/1 15/2/1 16/1/1
f 17/11/1 18/12/1 19/6/1 20/5/1
f 21/10/1 22/11/1 23/5/1 24/2/1
f 25/13/1 26/14/1 27/15/1 28/16/1
f 29/17/1 30/13/1 31/16/1 32/18/1
f 33/17/1 34/13/1 35/16/1 36/18/1
f 37/17/1 38/13/1 39/16/1 40/18/1
f 41/17/1 42/13/1 43/16/1 44/18/1
f 45/17/1 46/13/1 47/16/1 48/18/1
f 49/17/1 50/13/1 51/16/1 52/18/1
f 53/17/1 54/13/1 55/16/1 56/18/1
f 57/17/1 58/13/1 59/16/1 60/18/1
f 61/14/1 62/19/1 63/20/1 64/15/1
f 65/13/1 66/14/1 67/15/1 68/16/1
f 69/17/1 70/13/1 71/16/1 72/18/1
f 73/17/1 74/13/1 75/16/1 76/18/1
f 77/17/1 78/13/1 79/16/1 80/18/1
f 81/17/1 82/13/1 83/16/1 84/18/1
f 85/17/1 86/13/1 87/16/1 88/18/1
f 89/17/1 90/13/1 91/16/1 92/18/1
f 93/17/1 94/13/1 95/16/1 96/18/1
f 97/17/1 98/13/1 99/16/1 100/18/1
f 101/14/1 102/19/1 103/20/1 104/15/1

