# Tiled2Unity generated file. Do not modify by hand.
# Wavefront file for 'KulKuca2_mesh_0003.obj'

# Vertices (Count = 48)
v -320 -288 0
v -352 -288 0
v -352 -256 0
v -320 -256 0
v -288 -288 0
v -320 -288 0
v -320 -256 0
v -288 -256 0
v -256 -288 0
v -288 -288 0
v -288 -256 0
v -256 -256 0
v -224 -288 0
v -256 -288 0
v -256 -256 0
v -224 -256 0
v -192 -288 0
v -224 -288 0
v -224 -256 0
v -192 -256 0
v -160 -288 0
v -192 -288 0
v -192 -256 0
v -160 -256 0
v -320 -320 0
v -352 -320 0
v -352 -288 0
v -320 -288 0
v -288 -320 0
v -320 -320 0
v -320 -288 0
v -288 -288 0
v -256 -320 0
v -288 -320 0
v -288 -288 0
v -256 -288 0
v -224 -320 0
v -256 -320 0
v -256 -288 0
v -224 -288 0
v -192 -320 0
v -224 -320 0
v -224 -288 0
v -192 -288 0
v -160 -320 0
v -192 -320 0
v -192 -288 0
v -160 -288 0

# Texture cooridinates (Count = 12)
vt 0.4 0.5
vt 0.6 0.5
vt 0.6 1
vt 0.4 1
vt 0.2 0.5
vt 0.2 1
vt 0 0.5
vt 0 1
vt 0.4 0
vt 0.6 0
vt 0.2 0
vt 0 0

# Normal
vn 0 0 -1

# Mesh description
g KulKuca2_mesh_0003

# Faces
f 1/1/1 2/2/1 3/3/1 4/4/1
f 5/5/1 6/1/1 7/4/1 8/6/1
f 9/5/1 10/1/1 11/4/1 12/6/1
f 13/5/1 14/1/1 15/4/1 16/6/1
f 17/5/1 18/1/1 19/4/1 20/6/1
f 21/7/1 22/5/1 23/6/1 24/8/1
f 25/9/1 26/10/1 27/2/1 28/1/1
f 29/11/1 30/9/1 31/1/1 32/5/1
f 33/11/1 34/9/1 35/1/1 36/5/1
f 37/11/1 38/9/1 39/1/1 40/5/1
f 41/11/1 42/9/1 43/1/1 44/5/1
f 45/12/1 46/11/1 47/5/1 48/7/1

