# Tiled2Unity generated file. Do not modify by hand.
# Wavefront file for 'testKuca_mesh_0001.obj'

# Vertices (Count = 64)
v -96 -32 0
v -128 -32 0
v -128 0 0
v -96 0 0
v -64 -32 0
v -96 -32 0
v -96 0 0
v -64 0 0
v -32 -32 0
v -64 -32 0
v -64 0 0
v -32 0 0
v 0 -32 0
v -32 -32 0
v -32 0 0
v 0 0 0
v -96 -64 0
v -128 -64 0
v -128 -32 0
v -96 -32 0
v -64 -64 0
v -96 -64 0
v -96 -32 0
v -64 -32 0
v -32 -64 0
v -64 -64 0
v -64 -32 0
v -32 -32 0
v 0 -64 0
v -32 -64 0
v -32 -32 0
v 0 -32 0
v -96 -96 0
v -128 -96 0
v -128 -64 0
v -96 -64 0
v -64 -96 0
v -96 -96 0
v -96 -64 0
v -64 -64 0
v -32 -96 0
v -64 -96 0
v -64 -64 0
v -32 -64 0
v 0 -96 0
v -32 -96 0
v -32 -64 0
v 0 -64 0
v -96 -128 0
v -128 -128 0
v -128 -96 0
v -96 -96 0
v -64 -128 0
v -96 -128 0
v -96 -96 0
v -64 -96 0
v -32 -128 0
v -64 -128 0
v -64 -96 0
v -32 -96 0
v 0 -128 0
v -32 -128 0
v -32 -96 0
v 0 -96 0

# Texture cooridinates (Count = 25)
vt 0.75 0.75
vt 1 0.75
vt 1 1
vt 0.75 1
vt 0.5 0.75
vt 0.5 1
vt 0.25 0.75
vt 0.25 1
vt 0 0.75
vt 0 1
vt 0.75 0.5
vt 1 0.5
vt 0.5 0.5
vt 0.25 0.5
vt 0 0.5
vt 0.75 0.25
vt 1 0.25
vt 0.5 0.25
vt 0.25 0.25
vt 0 0.25
vt 0.75 0
vt 1 0
vt 0.5 0
vt 0.25 0
vt 0 0

# Normal
vn 0 0 -1

# Mesh description
g testKuca_mesh_0001

# Faces
f 1/1/1 2/2/1 3/3/1 4/4/1
f 5/5/1 6/1/1 7/4/1 8/6/1
f 9/7/1 10/5/1 11/6/1 12/8/1
f 13/9/1 14/7/1 15/8/1 16/10/1
f 17/11/1 18/12/1 19/2/1 20/1/1
f 21/13/1 22/11/1 23/1/1 24/5/1
f 25/14/1 26/13/1 27/5/1 28/7/1
f 29/15/1 30/14/1 31/7/1 32/9/1
f 33/16/1 34/17/1 35/12/1 36/11/1
f 37/18/1 38/16/1 39/11/1 40/13/1
f 41/19/1 42/18/1 43/13/1 44/14/1
f 45/20/1 46/19/1 47/14/1 48/15/1
f 49/21/1 50/22/1 51/17/1 52/16/1
f 53/23/1 54/21/1 55/16/1 56/18/1
f 57/24/1 58/23/1 59/18/1 60/19/1
f 61/25/1 62/24/1 63/19/1 64/20/1

