# Tiled2Unity generated file. Do not modify by hand.
# Wavefront file for 'kuca1_mesh_0002.obj'

# Vertices (Count = 84)
v -256 -64 0
v -288 -64 0
v -288 -32 0
v -256 -32 0
v -224 -64 0
v -256 -64 0
v -256 -32 0
v -224 -32 0
v -192 -64 0
v -224 -64 0
v -224 -32 0
v -192 -32 0
v -160 -64 0
v -192 -64 0
v -192 -32 0
v -160 -32 0
v -128 -64 0
v -160 -64 0
v -160 -32 0
v -128 -32 0
v -96 -64 0
v -128 -64 0
v -128 -32 0
v -96 -32 0
v -32 -64 0
v -64 -64 0
v -64 -32 0
v -32 -32 0
v -192 -96 0
v -224 -96 0
v -224 -64 0
v -192 -64 0
v -160 -96 0
v -192 -96 0
v -192 -64 0
v -160 -64 0
v -128 -96 0
v -160 -96 0
v -160 -64 0
v -128 -64 0
v -96 -96 0
v -128 -96 0
v -128 -64 0
v -96 -64 0
v -256 -160 0
v -288 -160 0
v -288 -128 0
v -256 -128 0
v -192 -160 0
v -224 -160 0
v -224 -128 0
v -192 -128 0
v -160 -160 0
v -192 -160 0
v -192 -128 0
v -160 -128 0
v -128 -160 0
v -160 -160 0
v -160 -128 0
v -128 -128 0
v -64 -160 0
v -96 -160 0
v -96 -128 0
v -64 -128 0
v -32 -160 0
v -64 -160 0
v -64 -128 0
v -32 -128 0
v -256 -192 0
v -288 -192 0
v -288 -160 0
v -256 -160 0
v -96 -256 0
v -128 -256 0
v -128 -224 0
v -96 -224 0
v -64 -256 0
v -96 -256 0
v -96 -224 0
v -64 -224 0
v -32 -256 0
v -64 -256 0
v -64 -224 0
v -32 -224 0

# Texture cooridinates (Count = 56)
vt 0.2985537 0.743346
vt 0.3150826 0.743346
vt 0.3150826 0.7737643
vt 0.2985537 0.7737643
vt 0.2458678 0.4201521
vt 0.2623967 0.4201521
vt 0.2623967 0.4505703
vt 0.2458678 0.4505703
vt 0.8078513 0.904943
vt 0.8243802 0.904943
vt 0.8243802 0.9353612
vt 0.8078513 0.9353612
vt 0.8078513 0.8726236
vt 0.8243802 0.8726236
vt 0.8243802 0.9030418
vt 0.8078513 0.9030418
vt 0.4214876 0.7110266
vt 0.4380165 0.7110266
vt 0.4380165 0.7414448
vt 0.4214876 0.7414448
vt 0.2634298 0.9372624
vt 0.2799587 0.9372624
vt 0.2799587 0.9676806
vt 0.2634298 0.9676806
vt 0.5268595 0.9695817
vt 0.5433884 0.9695817
vt 0.5433884 1
vt 0.5268595 1
vt 0.5092975 0.9695817
vt 0.5258265 0.9695817
vt 0.5258265 1
vt 0.5092975 1
vt 0.5444215 0.9695817
vt 0.5609504 0.9695817
vt 0.5609504 1
vt 0.5444215 1
vt 0.7024794 0.6463878
vt 0.7190083 0.6463878
vt 0.7190083 0.6768061
vt 0.7024794 0.6768061
vt 0.6849173 0.6463878
vt 0.7014463 0.6463878
vt 0.7014463 0.6768061
vt 0.6849173 0.6768061
vt 0.3863636 0.904943
vt 0.4028926 0.904943
vt 0.4028926 0.9353612
vt 0.3863636 0.9353612
vt 0.3863636 0.7756654
vt 0.4028926 0.7756654
vt 0.4028926 0.8060837
vt 0.3863636 0.8060837
vt 0.3688017 0.904943
vt 0.3853306 0.904943
vt 0.3853306 0.9353612
vt 0.3688017 0.9353612

# Normal
vn 0 0 -1

# Mesh description
g kuca1_mesh_0002

# Faces
f 1/1/1 2/2/1 3/3/1 4/4/1
f 5/5/1 6/6/1 7/7/1 8/8/1
f 9/9/1 10/10/1 11/11/1 12/12/1
f 13/1/1 14/2/1 15/3/1 16/4/1
f 17/1/1 18/2/1 19/3/1 20/4/1
f 21/9/1 22/10/1 23/11/1 24/12/1
f 25/1/1 26/2/1 27/3/1 28/4/1
f 29/13/1 30/14/1 31/15/1 32/16/1
f 33/17/1 34/18/1 35/19/1 36/20/1
f 37/17/1 38/18/1 39/19/1 40/20/1
f 41/13/1 42/14/1 43/15/1 44/16/1
f 45/21/1 46/22/1 47/23/1 48/24/1
f 49/25/1 50/26/1 51/27/1 52/28/1
f 53/29/1 54/30/1 55/31/1 56/32/1
f 57/33/1 58/34/1 59/35/1 60/36/1
f 61/37/1 62/38/1 63/39/1 64/40/1
f 65/41/1 66/42/1 67/43/1 68/44/1
f 69/21/1 70/22/1 71/23/1 72/24/1
f 73/45/1 74/46/1 75/47/1 76/48/1
f 77/49/1 78/50/1 79/51/1 80/52/1
f 81/53/1 82/54/1 83/55/1 84/56/1

